solid exported
	facet normal 0 0.9927093435043975 -0.120532814283366
		outer loop
			vertex 200 101.5 135
			vertex 207 101.60169982910156 135.8376007080078
			vertex 207 101.5 135
		endloop
	endfacet
	facet normal 0 0.935015412097309 -0.3546070771156429
		outer loop
			vertex 200 101.60169982910156 135.8376007080078
			vertex 207 101.9009017944336 136.62652587890625
			vertex 207 101.60169982910156 135.8376007080078
		endloop
	endfacet
	facet normal 0 0.9927093435043975 -0.120532814283366
		outer loop
			vertex 200 101.60169982910156 135.8376007080078
			vertex 207 101.60169982910156 135.8376007080078
			vertex 200 101.5 135
		endloop
	endfacet
	facet normal 0 0.8229888930609982 -0.5680574635529692
		outer loop
			vertex 200 101.9009017944336 136.62652587890625
			vertex 207 102.38021087646484 137.32093811035156
			vertex 207 101.9009017944336 136.62652587890625
		endloop
	endfacet
	facet normal 0 0.935015412097309 -0.3546070771156429
		outer loop
			vertex 200 101.9009017944336 136.62652587890625
			vertex 207 101.9009017944336 136.62652587890625
			vertex 200 101.60169982910156 135.8376007080078
		endloop
	endfacet
	facet normal 0 0.6631192103745032 -0.7485138026999205
		outer loop
			vertex 200 102.38021087646484 137.32093811035156
			vertex 207 103.01177215576172 137.8804473876953
			vertex 207 102.38021087646484 137.32093811035156
		endloop
	endfacet
	facet normal 0 0.8229888930609982 -0.5680574635529692
		outer loop
			vertex 200 102.38021087646484 137.32093811035156
			vertex 207 102.38021087646484 137.32093811035156
			vertex 200 101.9009017944336 136.62652587890625
		endloop
	endfacet
	facet normal 0 0.4647160491338839 -0.8854597640081641
		outer loop
			vertex 200 103.01177215576172 137.8804473876953
			vertex 207 103.75888061523438 138.27255249023438
			vertex 207 103.01177215576172 137.8804473876953
		endloop
	endfacet
	facet normal 0 0.6631192103745032 -0.7485138026999205
		outer loop
			vertex 200 103.01177215576172 137.8804473876953
			vertex 207 103.01177215576172 137.8804473876953
			vertex 200 102.38021087646484 137.32093811035156
		endloop
	endfacet
	facet normal 0 0.2393259535944136 -0.9709392812818548
		outer loop
			vertex 200 103.75888061523438 138.27255249023438
			vertex 207 104.578125 138.4744873046875
			vertex 207 103.75888061523438 138.27255249023438
		endloop
	endfacet
	facet normal 0 0.4647160491338839 -0.8854597640081641
		outer loop
			vertex 200 103.75888061523438 138.27255249023438
			vertex 207 103.75888061523438 138.27255249023438
			vertex 200 103.01177215576172 137.8804473876953
		endloop
	endfacet
	facet normal 0 0 -1
		outer loop
			vertex 200 104.578125 138.4744873046875
			vertex 207 105.421875 138.4744873046875
			vertex 207 104.578125 138.4744873046875
		endloop
	endfacet
	facet normal 0 0.2393259535944136 -0.9709392812818548
		outer loop
			vertex 200 104.578125 138.4744873046875
			vertex 207 104.578125 138.4744873046875
			vertex 200 103.75888061523438 138.27255249023438
		endloop
	endfacet
	facet normal 0 -0.2393259535944136 -0.9709392812818548
		outer loop
			vertex 200 105.421875 138.4744873046875
			vertex 207 106.24111938476562 138.27255249023438
			vertex 207 105.421875 138.4744873046875
		endloop
	endfacet
	facet normal 0 0 -1
		outer loop
			vertex 200 105.421875 138.4744873046875
			vertex 207 105.421875 138.4744873046875
			vertex 200 104.578125 138.4744873046875
		endloop
	endfacet
	facet normal 0 -0.4647160491338839 -0.8854597640081641
		outer loop
			vertex 200 106.24111938476562 138.27255249023438
			vertex 207 106.98822784423828 137.8804473876953
			vertex 207 106.24111938476562 138.27255249023438
		endloop
	endfacet
	facet normal 0 -0.2393259535944136 -0.9709392812818548
		outer loop
			vertex 200 106.24111938476562 138.27255249023438
			vertex 207 106.24111938476562 138.27255249023438
			vertex 200 105.421875 138.4744873046875
		endloop
	endfacet
	facet normal 0 -0.6631192103745032 -0.7485138026999205
		outer loop
			vertex 200 106.98822784423828 137.8804473876953
			vertex 207 107.61978912353516 137.32093811035156
			vertex 207 106.98822784423828 137.8804473876953
		endloop
	endfacet
	facet normal 0 -0.4647160491338839 -0.8854597640081641
		outer loop
			vertex 200 106.98822784423828 137.8804473876953
			vertex 207 106.98822784423828 137.8804473876953
			vertex 200 106.24111938476562 138.27255249023438
		endloop
	endfacet
	facet normal 0 -0.8229888930609982 -0.5680574635529692
		outer loop
			vertex 200 107.61978912353516 137.32093811035156
			vertex 207 108.0990982055664 136.62652587890625
			vertex 207 107.61978912353516 137.32093811035156
		endloop
	endfacet
	facet normal 0 -0.6631192103745032 -0.7485138026999205
		outer loop
			vertex 200 107.61978912353516 137.32093811035156
			vertex 207 107.61978912353516 137.32093811035156
			vertex 200 106.98822784423828 137.8804473876953
		endloop
	endfacet
	facet normal 0 -0.8229888930609982 -0.5680574635529692
		outer loop
			vertex 200 108.0990982055664 136.62652587890625
			vertex 207 108.0990982055664 136.62652587890625
			vertex 200 107.61978912353516 137.32093811035156
		endloop
	endfacet
	facet normal 0 -0.935015412097309 -0.3546070771156429
		outer loop
			vertex 200 108.0990982055664 136.62652587890625
			vertex 207 108.39830017089844 135.8376007080078
			vertex 207 108.0990982055664 136.62652587890625
		endloop
	endfacet
	facet normal 0 -0.935015412097309 -0.3546070771156429
		outer loop
			vertex 200 108.39830017089844 135.8376007080078
			vertex 207 108.39830017089844 135.8376007080078
			vertex 200 108.0990982055664 136.62652587890625
		endloop
	endfacet
	facet normal 0 -0.9927093435043975 -0.120532814283366
		outer loop
			vertex 200 108.39830017089844 135.8376007080078
			vertex 207 108.5 135
			vertex 207 108.39830017089844 135.8376007080078
		endloop
	endfacet
	facet normal 0 -0.9927093435043975 -0.120532814283366
		outer loop
			vertex 200 108.5 135
			vertex 207 108.5 135
			vertex 200 108.39830017089844 135.8376007080078
		endloop
	endfacet
	facet normal 0 -0.9927093435043975 0.120532814283366
		outer loop
			vertex 200 108.5 135
			vertex 207 108.39830017089844 134.1623992919922
			vertex 207 108.5 135
		endloop
	endfacet
	facet normal 0 -0.9927093435043975 0.120532814283366
		outer loop
			vertex 200 108.39830017089844 134.1623992919922
			vertex 207 108.39830017089844 134.1623992919922
			vertex 200 108.5 135
		endloop
	endfacet
	facet normal 0 -0.935015412097309 0.3546070771156429
		outer loop
			vertex 200 108.0990982055664 133.37347412109375
			vertex 207 108.39830017089844 134.1623992919922
			vertex 200 108.39830017089844 134.1623992919922
		endloop
	endfacet
	facet normal 0 -0.935015412097309 0.3546070771156429
		outer loop
			vertex 200 108.0990982055664 133.37347412109375
			vertex 207 108.0990982055664 133.37347412109375
			vertex 207 108.39830017089844 134.1623992919922
		endloop
	endfacet
	facet normal 0 -0.8229830573884118 0.5680659180514369
		outer loop
			vertex 200 108.0990982055664 133.37347412109375
			vertex 207 107.61978912353516 132.6790771484375
			vertex 207 108.0990982055664 133.37347412109375
		endloop
	endfacet
	facet normal 0 -0.8229830573884118 0.5680659180514369
		outer loop
			vertex 200 107.61978912353516 132.6790771484375
			vertex 207 107.61978912353516 132.6790771484375
			vertex 200 108.0990982055664 133.37347412109375
		endloop
	endfacet
	facet normal 0 -0.6631293423982981 0.7485048264710126
		outer loop
			vertex 200 106.98822784423828 132.1195526123047
			vertex 207 107.61978912353516 132.6790771484375
			vertex 200 107.61978912353516 132.6790771484375
		endloop
	endfacet
	facet normal 0 -0.6631293423982981 0.7485048264710126
		outer loop
			vertex 200 106.98822784423828 132.1195526123047
			vertex 207 106.98822784423828 132.1195526123047
			vertex 207 107.61978912353516 132.6790771484375
		endloop
	endfacet
	facet normal 0 -0.4647160491338839 0.8854597640081641
		outer loop
			vertex 200 106.24111938476562 131.72744750976562
			vertex 207 106.98822784423828 132.1195526123047
			vertex 200 106.98822784423828 132.1195526123047
		endloop
	endfacet
	facet normal 0 -0.4647160491338839 0.8854597640081641
		outer loop
			vertex 200 106.24111938476562 131.72744750976562
			vertex 207 106.24111938476562 131.72744750976562
			vertex 207 106.98822784423828 132.1195526123047
		endloop
	endfacet
	facet normal 0 -0.23930890511574607 0.9709434833873201
		outer loop
			vertex 200 106.24111938476562 131.72744750976562
			vertex 207 105.421875 131.52552795410156
			vertex 207 106.24111938476562 131.72744750976562
		endloop
	endfacet
	facet normal 0 -0.23930890511574607 0.9709434833873201
		outer loop
			vertex 200 105.421875 131.52552795410156
			vertex 207 105.421875 131.52552795410156
			vertex 200 106.24111938476562 131.72744750976562
		endloop
	endfacet
	facet normal 0 0 1
		outer loop
			vertex 200 105.421875 131.52552795410156
			vertex 207 104.578125 131.52552795410156
			vertex 207 105.421875 131.52552795410156
		endloop
	endfacet
	facet normal 0 0 1
		outer loop
			vertex 200 104.578125 131.52552795410156
			vertex 207 104.578125 131.52552795410156
			vertex 200 105.421875 131.52552795410156
		endloop
	endfacet
	facet normal 0 0.23930890511574607 0.9709434833873201
		outer loop
			vertex 200 103.75888061523438 131.72744750976562
			vertex 207 104.578125 131.52552795410156
			vertex 200 104.578125 131.52552795410156
		endloop
	endfacet
	facet normal 0 0.23930890511574607 0.9709434833873201
		outer loop
			vertex 200 103.75888061523438 131.72744750976562
			vertex 207 103.75888061523438 131.72744750976562
			vertex 207 104.578125 131.52552795410156
		endloop
	endfacet
	facet normal 0 0.4647160491338839 0.8854597640081641
		outer loop
			vertex 200 103.75888061523438 131.72744750976562
			vertex 207 103.01177215576172 132.1195526123047
			vertex 207 103.75888061523438 131.72744750976562
		endloop
	endfacet
	facet normal 0 0.4647160491338839 0.8854597640081641
		outer loop
			vertex 200 103.01177215576172 132.1195526123047
			vertex 207 103.01177215576172 132.1195526123047
			vertex 200 103.75888061523438 131.72744750976562
		endloop
	endfacet
	facet normal 0 0.6631293423982981 0.7485048264710126
		outer loop
			vertex 200 103.01177215576172 132.1195526123047
			vertex 207 102.38021087646484 132.6790771484375
			vertex 207 103.01177215576172 132.1195526123047
		endloop
	endfacet
	facet normal 0 0.6631293423982981 0.7485048264710126
		outer loop
			vertex 200 102.38021087646484 132.6790771484375
			vertex 207 102.38021087646484 132.6790771484375
			vertex 200 103.01177215576172 132.1195526123047
		endloop
	endfacet
	facet normal 0 0.8229830573884118 0.5680659180514369
		outer loop
			vertex 200 101.9009017944336 133.37347412109375
			vertex 207 101.9009017944336 133.37347412109375
			vertex 207 102.38021087646484 132.6790771484375
		endloop
	endfacet
	facet normal 0 0.8229830573884118 0.5680659180514369
		outer loop
			vertex 200 101.9009017944336 133.37347412109375
			vertex 207 102.38021087646484 132.6790771484375
			vertex 200 102.38021087646484 132.6790771484375
		endloop
	endfacet
	facet normal 0 0.935015412097309 0.3546070771156429
		outer loop
			vertex 200 101.9009017944336 133.37347412109375
			vertex 207 101.60169982910156 134.1623992919922
			vertex 207 101.9009017944336 133.37347412109375
		endloop
	endfacet
	facet normal 0 0.9927093435043975 0.120532814283366
		outer loop
			vertex 200 101.60169982910156 134.1623992919922
			vertex 207 101.5 135
			vertex 207 101.60169982910156 134.1623992919922
		endloop
	endfacet
	facet normal 0 0.935015412097309 0.3546070771156429
		outer loop
			vertex 200 101.60169982910156 134.1623992919922
			vertex 207 101.60169982910156 134.1623992919922
			vertex 200 101.9009017944336 133.37347412109375
		endloop
	endfacet
	facet normal 0 0.9927093435043975 0.120532814283366
		outer loop
			vertex 200 101.5 135
			vertex 207 101.5 135
			vertex 200 101.60169982910156 134.1623992919922
		endloop
	endfacet
	facet normal 0 0.9927082615271365 -0.12054172512358824
		outer loop
			vertex 200 86.5 135
			vertex 207 86.6017074584961 135.8376007080078
			vertex 207 86.5 135
		endloop
	endfacet
	facet normal 0 0.9350184101257651 -0.35459917191934703
		outer loop
			vertex 200 86.6017074584961 135.8376007080078
			vertex 207 86.9009017944336 136.62652587890625
			vertex 207 86.6017074584961 135.8376007080078
		endloop
	endfacet
	facet normal 0 0.9927082615271365 -0.12054172512358824
		outer loop
			vertex 200 86.6017074584961 135.8376007080078
			vertex 207 86.6017074584961 135.8376007080078
			vertex 200 86.5 135
		endloop
	endfacet
	facet normal 0 0.8229888930609982 -0.5680574635529692
		outer loop
			vertex 200 86.9009017944336 136.62652587890625
			vertex 207 87.38021087646484 137.32093811035156
			vertex 207 86.9009017944336 136.62652587890625
		endloop
	endfacet
	facet normal 0 0.9350184101257651 -0.35459917191934703
		outer loop
			vertex 200 86.9009017944336 136.62652587890625
			vertex 207 86.9009017944336 136.62652587890625
			vertex 200 86.6017074584961 135.8376007080078
		endloop
	endfacet
	facet normal 0 0.6631192103745032 -0.7485138026999205
		outer loop
			vertex 200 87.38021087646484 137.32093811035156
			vertex 207 88.01177215576172 137.8804473876953
			vertex 207 87.38021087646484 137.32093811035156
		endloop
	endfacet
	facet normal 0 0.8229888930609982 -0.5680574635529692
		outer loop
			vertex 200 87.38021087646484 137.32093811035156
			vertex 207 87.38021087646484 137.32093811035156
			vertex 200 86.9009017944336 136.62652587890625
		endloop
	endfacet
	facet normal 0 0.4647160491338839 -0.8854597640081641
		outer loop
			vertex 200 88.01177215576172 137.8804473876953
			vertex 207 88.75888061523438 138.27255249023438
			vertex 207 88.01177215576172 137.8804473876953
		endloop
	endfacet
	facet normal 0 0.6631192103745032 -0.7485138026999205
		outer loop
			vertex 200 88.01177215576172 137.8804473876953
			vertex 207 88.01177215576172 137.8804473876953
			vertex 200 87.38021087646484 137.32093811035156
		endloop
	endfacet
	facet normal 0 0.2393259535944136 -0.9709392812818548
		outer loop
			vertex 200 88.75888061523438 138.27255249023438
			vertex 207 89.578125 138.4744873046875
			vertex 207 88.75888061523438 138.27255249023438
		endloop
	endfacet
	facet normal 0 0.4647160491338839 -0.8854597640081641
		outer loop
			vertex 200 88.75888061523438 138.27255249023438
			vertex 207 88.75888061523438 138.27255249023438
			vertex 200 88.01177215576172 137.8804473876953
		endloop
	endfacet
	facet normal 0 0 -1
		outer loop
			vertex 200 89.578125 138.4744873046875
			vertex 207 90.42188262939453 138.4744873046875
			vertex 207 89.578125 138.4744873046875
		endloop
	endfacet
	facet normal 0 0.2393259535944136 -0.9709392812818548
		outer loop
			vertex 200 89.578125 138.4744873046875
			vertex 207 89.578125 138.4744873046875
			vertex 200 88.75888061523438 138.27255249023438
		endloop
	endfacet
	facet normal 0 -0.23932805473077615 -0.9709387633722235
		outer loop
			vertex 200 90.42188262939453 138.4744873046875
			vertex 207 91.24111938476562 138.27255249023438
			vertex 207 90.42188262939453 138.4744873046875
		endloop
	endfacet
	facet normal 0 0 -1
		outer loop
			vertex 200 90.42188262939453 138.4744873046875
			vertex 207 90.42188262939453 138.4744873046875
			vertex 200 89.578125 138.4744873046875
		endloop
	endfacet
	facet normal 0 -0.4647160491338839 -0.8854597640081641
		outer loop
			vertex 200 91.24111938476562 138.27255249023438
			vertex 207 91.98822784423828 137.8804473876953
			vertex 207 91.24111938476562 138.27255249023438
		endloop
	endfacet
	facet normal 0 -0.23932805473077615 -0.9709387633722235
		outer loop
			vertex 200 91.24111938476562 138.27255249023438
			vertex 207 91.24111938476562 138.27255249023438
			vertex 200 90.42188262939453 138.4744873046875
		endloop
	endfacet
	facet normal 0 -0.6631192103745032 -0.7485138026999205
		outer loop
			vertex 200 91.98822784423828 137.8804473876953
			vertex 207 92.61978912353516 137.32093811035156
			vertex 207 91.98822784423828 137.8804473876953
		endloop
	endfacet
	facet normal 0 -0.4647160491338839 -0.8854597640081641
		outer loop
			vertex 200 91.98822784423828 137.8804473876953
			vertex 207 91.98822784423828 137.8804473876953
			vertex 200 91.24111938476562 138.27255249023438
		endloop
	endfacet
	facet normal 0 -0.8229888930609982 -0.5680574635529692
		outer loop
			vertex 200 92.61978912353516 137.32093811035156
			vertex 207 93.0990982055664 136.62652587890625
			vertex 207 92.61978912353516 137.32093811035156
		endloop
	endfacet
	facet normal 0 -0.6631192103745032 -0.7485138026999205
		outer loop
			vertex 200 92.61978912353516 137.32093811035156
			vertex 207 92.61978912353516 137.32093811035156
			vertex 200 91.98822784423828 137.8804473876953
		endloop
	endfacet
	facet normal 0 -0.8229888930609982 -0.5680574635529692
		outer loop
			vertex 200 93.0990982055664 136.62652587890625
			vertex 207 93.0990982055664 136.62652587890625
			vertex 200 92.61978912353516 137.32093811035156
		endloop
	endfacet
	facet normal 0 -0.935015412097309 -0.3546070771156429
		outer loop
			vertex 200 93.0990982055664 136.62652587890625
			vertex 207 93.39830017089844 135.8376007080078
			vertex 207 93.0990982055664 136.62652587890625
		endloop
	endfacet
	facet normal 0 -0.935015412097309 -0.3546070771156429
		outer loop
			vertex 200 93.39830017089844 135.8376007080078
			vertex 207 93.39830017089844 135.8376007080078
			vertex 200 93.0990982055664 136.62652587890625
		endloop
	endfacet
	facet normal 0 -0.9927093435043975 -0.120532814283366
		outer loop
			vertex 200 93.39830017089844 135.8376007080078
			vertex 207 93.5 135
			vertex 207 93.39830017089844 135.8376007080078
		endloop
	endfacet
	facet normal 0 -0.9927093435043975 -0.120532814283366
		outer loop
			vertex 200 93.5 135
			vertex 207 93.5 135
			vertex 200 93.39830017089844 135.8376007080078
		endloop
	endfacet
	facet normal 0 -0.9927093435043975 0.120532814283366
		outer loop
			vertex 200 93.5 135
			vertex 207 93.39830017089844 134.1623992919922
			vertex 207 93.5 135
		endloop
	endfacet
	facet normal 0 -0.9927093435043975 0.120532814283366
		outer loop
			vertex 200 93.39830017089844 134.1623992919922
			vertex 207 93.39830017089844 134.1623992919922
			vertex 200 93.5 135
		endloop
	endfacet
	facet normal 0 -0.935015412097309 0.3546070771156429
		outer loop
			vertex 200 93.0990982055664 133.37347412109375
			vertex 207 93.39830017089844 134.1623992919922
			vertex 200 93.39830017089844 134.1623992919922
		endloop
	endfacet
	facet normal 0 -0.935015412097309 0.3546070771156429
		outer loop
			vertex 200 93.0990982055664 133.37347412109375
			vertex 207 93.0990982055664 133.37347412109375
			vertex 207 93.39830017089844 134.1623992919922
		endloop
	endfacet
	facet normal 0 -0.8229830573884118 0.5680659180514369
		outer loop
			vertex 200 93.0990982055664 133.37347412109375
			vertex 207 92.61978912353516 132.6790771484375
			vertex 207 93.0990982055664 133.37347412109375
		endloop
	endfacet
	facet normal 0 -0.8229830573884118 0.5680659180514369
		outer loop
			vertex 200 92.61978912353516 132.6790771484375
			vertex 207 92.61978912353516 132.6790771484375
			vertex 200 93.0990982055664 133.37347412109375
		endloop
	endfacet
	facet normal 0 -0.6631293423982981 0.7485048264710126
		outer loop
			vertex 200 91.98822784423828 132.1195526123047
			vertex 207 92.61978912353516 132.6790771484375
			vertex 200 92.61978912353516 132.6790771484375
		endloop
	endfacet
	facet normal 0 -0.6631293423982981 0.7485048264710126
		outer loop
			vertex 200 91.98822784423828 132.1195526123047
			vertex 207 91.98822784423828 132.1195526123047
			vertex 207 92.61978912353516 132.6790771484375
		endloop
	endfacet
	facet normal 0 -0.4647160491338839 0.8854597640081641
		outer loop
			vertex 200 91.24111938476562 131.72744750976562
			vertex 207 91.98822784423828 132.1195526123047
			vertex 200 91.98822784423828 132.1195526123047
		endloop
	endfacet
	facet normal 0 -0.4647160491338839 0.8854597640081641
		outer loop
			vertex 200 91.24111938476562 131.72744750976562
			vertex 207 91.24111938476562 131.72744750976562
			vertex 207 91.98822784423828 132.1195526123047
		endloop
	endfacet
	facet normal 0 -0.2393110061206192 0.9709429655492319
		outer loop
			vertex 200 91.24111938476562 131.72744750976562
			vertex 207 90.42188262939453 131.52552795410156
			vertex 207 91.24111938476562 131.72744750976562
		endloop
	endfacet
	facet normal 0 -0.2393110061206192 0.9709429655492319
		outer loop
			vertex 200 90.42188262939453 131.52552795410156
			vertex 207 90.42188262939453 131.52552795410156
			vertex 200 91.24111938476562 131.72744750976562
		endloop
	endfacet
	facet normal 0 0 1
		outer loop
			vertex 200 90.42188262939453 131.52552795410156
			vertex 207 89.578125 131.52552795410156
			vertex 207 90.42188262939453 131.52552795410156
		endloop
	endfacet
	facet normal 0 0 1
		outer loop
			vertex 200 89.578125 131.52552795410156
			vertex 207 89.578125 131.52552795410156
			vertex 200 90.42188262939453 131.52552795410156
		endloop
	endfacet
	facet normal 0 0.23930890511574607 0.9709434833873201
		outer loop
			vertex 200 88.75888061523438 131.72744750976562
			vertex 207 89.578125 131.52552795410156
			vertex 200 89.578125 131.52552795410156
		endloop
	endfacet
	facet normal 0 0.23930890511574607 0.9709434833873201
		outer loop
			vertex 200 88.75888061523438 131.72744750976562
			vertex 207 88.75888061523438 131.72744750976562
			vertex 207 89.578125 131.52552795410156
		endloop
	endfacet
	facet normal 0 0.4647160491338839 0.8854597640081641
		outer loop
			vertex 200 88.75888061523438 131.72744750976562
			vertex 207 88.01177215576172 132.1195526123047
			vertex 207 88.75888061523438 131.72744750976562
		endloop
	endfacet
	facet normal 0 0.4647160491338839 0.8854597640081641
		outer loop
			vertex 200 88.01177215576172 132.1195526123047
			vertex 207 88.01177215576172 132.1195526123047
			vertex 200 88.75888061523438 131.72744750976562
		endloop
	endfacet
	facet normal 0 0.6631293423982981 0.7485048264710126
		outer loop
			vertex 200 88.01177215576172 132.1195526123047
			vertex 207 87.38021087646484 132.6790771484375
			vertex 207 88.01177215576172 132.1195526123047
		endloop
	endfacet
	facet normal 0 0.6631293423982981 0.7485048264710126
		outer loop
			vertex 200 87.38021087646484 132.6790771484375
			vertex 207 87.38021087646484 132.6790771484375
			vertex 200 88.01177215576172 132.1195526123047
		endloop
	endfacet
	facet normal 0 0.8229830573884118 0.5680659180514369
		outer loop
			vertex 200 86.9009017944336 133.37347412109375
			vertex 207 86.9009017944336 133.37347412109375
			vertex 207 87.38021087646484 132.6790771484375
		endloop
	endfacet
	facet normal 0 0.8229830573884118 0.5680659180514369
		outer loop
			vertex 200 86.9009017944336 133.37347412109375
			vertex 207 87.38021087646484 132.6790771484375
			vertex 200 87.38021087646484 132.6790771484375
		endloop
	endfacet
	facet normal 0 0.9350184101257651 0.35459917191934703
		outer loop
			vertex 200 86.9009017944336 133.37347412109375
			vertex 207 86.6017074584961 134.1623992919922
			vertex 207 86.9009017944336 133.37347412109375
		endloop
	endfacet
	facet normal 0 0.9927082615271365 0.12054172512358824
		outer loop
			vertex 200 86.6017074584961 134.1623992919922
			vertex 207 86.5 135
			vertex 207 86.6017074584961 134.1623992919922
		endloop
	endfacet
	facet normal 0 0.9350184101257651 0.35459917191934703
		outer loop
			vertex 200 86.6017074584961 134.1623992919922
			vertex 207 86.6017074584961 134.1623992919922
			vertex 200 86.9009017944336 133.37347412109375
		endloop
	endfacet
	facet normal 0 0.9927082615271365 0.12054172512358824
		outer loop
			vertex 200 86.5 135
			vertex 207 86.5 135
			vertex 200 86.6017074584961 134.1623992919922
		endloop
	endfacet
	facet normal 0 -0.9950371902099892 0.09950371902099892
		outer loop
			vertex 200 90 217.5
			vertex 207 82.5 142.5
			vertex 207 90 217.5
		endloop
	endfacet
	facet normal 0 -0.9950371902099892 0.09950371902099892
		outer loop
			vertex 200 90 217.5
			vertex 200 82.5 142.5
			vertex 207 82.5 142.5
		endloop
	endfacet
	facet normal 0 0.9950371902099892 0.09950371902099892
		outer loop
			vertex 207 112.5 142.5
			vertex 200 105 217.5
			vertex 207 105 217.5
		endloop
	endfacet
	facet normal 0 0.9950371902099892 0.09950371902099892
		outer loop
			vertex 200 112.5 142.5
			vertex 200 105 217.5
			vertex 207 112.5 142.5
		endloop
	endfacet
	facet normal 0 1 0
		outer loop
			vertex 200 105 212.5
			vertex 100 105 217.5
			vertex 200 105 217.5
		endloop
	endfacet
	facet normal 0 1 0
		outer loop
			vertex 200 105 212.5
			vertex 100 105 212.5
			vertex 100 105 217.5
		endloop
	endfacet
	facet normal -1 0 0
		outer loop
			vertex 100 105 212.5
			vertex 100 90 217.5
			vertex 100 105 217.5
		endloop
	endfacet
	facet normal -1 0 0
		outer loop
			vertex 100 105 212.5
			vertex 100 90 212.5
			vertex 100 90 217.5
		endloop
	endfacet
	facet normal 0 -1 0
		outer loop
			vertex 100 90 212.5
			vertex 200 90 217.5
			vertex 100 90 217.5
		endloop
	endfacet
	facet normal 0 -1 0
		outer loop
			vertex 100 90 212.5
			vertex 200 90 212.5
			vertex 200 90 217.5
		endloop
	endfacet
	facet normal 0 0 1
		outer loop
			vertex 207 90 217.5
			vertex 207 105 217.5
			vertex 200 105 217.5
		endloop
	endfacet
	facet normal 0 0 1
		outer loop
			vertex 200 90 217.5
			vertex 207 90 217.5
			vertex 200 105 217.5
		endloop
	endfacet
	facet normal 0 0 1
		outer loop
			vertex 100 90 217.5
			vertex 200 105 217.5
			vertex 100 105 217.5
		endloop
	endfacet
	facet normal 0 0 1
		outer loop
			vertex 100 90 217.5
			vertex 200 90 217.5
			vertex 200 105 217.5
		endloop
	endfacet
	facet normal 0 0 -1
		outer loop
			vertex 100 105 212.5
			vertex 200 105 212.5
			vertex 200 90 212.5
		endloop
	endfacet
	facet normal 0 0 -1
		outer loop
			vertex 100 105 212.5
			vertex 200 90 212.5
			vertex 100 90 212.5
		endloop
	endfacet
	facet normal 0 0 -1
		outer loop
			vertex 207 112.5 127.5
			vertex 200 82.5 127.5
			vertex 200 112.5 127.5
		endloop
	endfacet
	facet normal 0 0 -1
		outer loop
			vertex 207 112.5 127.5
			vertex 207 82.5 127.5
			vertex 200 82.5 127.5
		endloop
	endfacet
	facet normal 0 -1 0
		outer loop
			vertex 200 82.5 127.5
			vertex 207 82.5 142.5
			vertex 200 82.5 142.5
		endloop
	endfacet
	facet normal 0 -1 0
		outer loop
			vertex 207 82.5 127.5
			vertex 207 82.5 142.5
			vertex 200 82.5 127.5
		endloop
	endfacet
	facet normal 0 1 0
		outer loop
			vertex 200 112.5 142.5
			vertex 207 112.5 127.5
			vertex 200 112.5 127.5
		endloop
	endfacet
	facet normal 0 1 0
		outer loop
			vertex 207 112.5 142.5
			vertex 207 112.5 127.5
			vertex 200 112.5 142.5
		endloop
	endfacet
	facet normal 1 0 0
		outer loop
			vertex 207 88.01177215576172 132.1195526123047
			vertex 207 87.38021087646484 132.6790771484375
			vertex 207 82.5 127.5
		endloop
	endfacet
	facet normal 1 0 0
		outer loop
			vertex 207 86.9009017944336 133.37347412109375
			vertex 207 82.5 127.5
			vertex 207 87.38021087646484 132.6790771484375
		endloop
	endfacet
	facet normal 1 0 0
		outer loop
			vertex 207 88.75888061523438 131.72744750976562
			vertex 207 88.01177215576172 132.1195526123047
			vertex 207 82.5 127.5
		endloop
	endfacet
	facet normal 1 0 0
		outer loop
			vertex 207 86.6017074584961 134.1623992919922
			vertex 207 82.5 127.5
			vertex 207 86.9009017944336 133.37347412109375
		endloop
	endfacet
	facet normal 1 0 0
		outer loop
			vertex 207 89.578125 131.52552795410156
			vertex 207 88.75888061523438 131.72744750976562
			vertex 207 82.5 127.5
		endloop
	endfacet
	facet normal 1 0 0
		outer loop
			vertex 207 86.5 135
			vertex 207 82.5 127.5
			vertex 207 86.6017074584961 134.1623992919922
		endloop
	endfacet
	facet normal 1 0 0
		outer loop
			vertex 207 90.42188262939453 131.52552795410156
			vertex 207 89.578125 131.52552795410156
			vertex 207 82.5 127.5
		endloop
	endfacet
	facet normal 1 0 0
		outer loop
			vertex 207 91.24111938476562 131.72744750976562
			vertex 207 90.42188262939453 131.52552795410156
			vertex 207 82.5 127.5
		endloop
	endfacet
	facet normal 1 0 0
		outer loop
			vertex 207 82.5 142.5
			vertex 207 86.5 135
			vertex 207 86.6017074584961 135.8376007080078
		endloop
	endfacet
	facet normal 1 0 0
		outer loop
			vertex 207 82.5 142.5
			vertex 207 86.6017074584961 135.8376007080078
			vertex 207 86.9009017944336 136.62652587890625
		endloop
	endfacet
	facet normal 1 0 0
		outer loop
			vertex 207 82.5 142.5
			vertex 207 86.9009017944336 136.62652587890625
			vertex 207 87.38021087646484 137.32093811035156
		endloop
	endfacet
	facet normal 1 0 0
		outer loop
			vertex 207 82.5 142.5
			vertex 207 82.5 127.5
			vertex 207 86.5 135
		endloop
	endfacet
	facet normal 1 0 0
		outer loop
			vertex 207 88.01177215576172 137.8804473876953
			vertex 207 82.5 142.5
			vertex 207 87.38021087646484 137.32093811035156
		endloop
	endfacet
	facet normal 1 0 0
		outer loop
			vertex 207 88.75888061523438 138.27255249023438
			vertex 207 82.5 142.5
			vertex 207 88.01177215576172 137.8804473876953
		endloop
	endfacet
	facet normal 1 0 0
		outer loop
			vertex 207 89.578125 138.4744873046875
			vertex 207 82.5 142.5
			vertex 207 88.75888061523438 138.27255249023438
		endloop
	endfacet
	facet normal 1 0 0
		outer loop
			vertex 207 90.42188262939453 138.4744873046875
			vertex 207 82.5 142.5
			vertex 207 89.578125 138.4744873046875
		endloop
	endfacet
	facet normal 1 0 0
		outer loop
			vertex 207 91.24111938476562 138.27255249023438
			vertex 207 82.5 142.5
			vertex 207 90.42188262939453 138.4744873046875
		endloop
	endfacet
	facet normal 1 0 0
		outer loop
			vertex 207 102.38021087646484 132.6790771484375
			vertex 207 92.61978912353516 132.6790771484375
			vertex 207 91.98822784423828 132.1195526123047
		endloop
	endfacet
	facet normal 1 0 0
		outer loop
			vertex 207 103.01177215576172 132.1195526123047
			vertex 207 91.98822784423828 132.1195526123047
			vertex 207 91.24111938476562 131.72744750976562
		endloop
	endfacet
	facet normal 1 0 0
		outer loop
			vertex 207 103.01177215576172 132.1195526123047
			vertex 207 102.38021087646484 132.6790771484375
			vertex 207 91.98822784423828 132.1195526123047
		endloop
	endfacet
	facet normal 1 0 0
		outer loop
			vertex 207 101.9009017944336 133.37347412109375
			vertex 207 93.0990982055664 133.37347412109375
			vertex 207 92.61978912353516 132.6790771484375
		endloop
	endfacet
	facet normal 1 0 0
		outer loop
			vertex 207 101.9009017944336 133.37347412109375
			vertex 207 92.61978912353516 132.6790771484375
			vertex 207 102.38021087646484 132.6790771484375
		endloop
	endfacet
	facet normal 1 0 0
		outer loop
			vertex 207 103.75888061523438 131.72744750976562
			vertex 207 103.01177215576172 132.1195526123047
			vertex 207 91.24111938476562 131.72744750976562
		endloop
	endfacet
	facet normal 1 0 0
		outer loop
			vertex 207 103.75888061523438 131.72744750976562
			vertex 207 91.24111938476562 131.72744750976562
			vertex 207 82.5 127.5
		endloop
	endfacet
	facet normal 1 0 0
		outer loop
			vertex 207 101.60169982910156 134.1623992919922
			vertex 207 93.0990982055664 133.37347412109375
			vertex 207 101.9009017944336 133.37347412109375
		endloop
	endfacet
	facet normal 1 0 0
		outer loop
			vertex 207 101.60169982910156 134.1623992919922
			vertex 207 93.39830017089844 134.1623992919922
			vertex 207 93.0990982055664 133.37347412109375
		endloop
	endfacet
	facet normal 1 0 0
		outer loop
			vertex 207 101.5 135
			vertex 207 93.39830017089844 134.1623992919922
			vertex 207 101.60169982910156 134.1623992919922
		endloop
	endfacet
	facet normal 1 0 0
		outer loop
			vertex 207 101.5 135
			vertex 207 93.5 135
			vertex 207 93.39830017089844 134.1623992919922
		endloop
	endfacet
	facet normal 1 0 0
		outer loop
			vertex 207 101.60169982910156 135.8376007080078
			vertex 207 93.5 135
			vertex 207 101.5 135
		endloop
	endfacet
	facet normal 1 0 0
		outer loop
			vertex 207 101.60169982910156 135.8376007080078
			vertex 207 93.39830017089844 135.8376007080078
			vertex 207 93.5 135
		endloop
	endfacet
	facet normal 1 0 0
		outer loop
			vertex 207 101.9009017944336 136.62652587890625
			vertex 207 93.39830017089844 135.8376007080078
			vertex 207 101.60169982910156 135.8376007080078
		endloop
	endfacet
	facet normal 1 0 0
		outer loop
			vertex 207 101.9009017944336 136.62652587890625
			vertex 207 93.0990982055664 136.62652587890625
			vertex 207 93.39830017089844 135.8376007080078
		endloop
	endfacet
	facet normal 1 0 0
		outer loop
			vertex 207 102.38021087646484 137.32093811035156
			vertex 207 93.0990982055664 136.62652587890625
			vertex 207 101.9009017944336 136.62652587890625
		endloop
	endfacet
	facet normal 1 0 0
		outer loop
			vertex 207 102.38021087646484 137.32093811035156
			vertex 207 92.61978912353516 137.32093811035156
			vertex 207 93.0990982055664 136.62652587890625
		endloop
	endfacet
	facet normal 1 0 0
		outer loop
			vertex 207 112.5 127.5
			vertex 207 106.98822784423828 132.1195526123047
			vertex 207 106.24111938476562 131.72744750976562
		endloop
	endfacet
	facet normal 1 0 0
		outer loop
			vertex 207 112.5 127.5
			vertex 207 106.24111938476562 131.72744750976562
			vertex 207 105.421875 131.52552795410156
		endloop
	endfacet
	facet normal 1 0 0
		outer loop
			vertex 207 112.5 127.5
			vertex 207 103.75888061523438 131.72744750976562
			vertex 207 82.5 127.5
		endloop
	endfacet
	facet normal 1 0 0
		outer loop
			vertex 207 112.5 127.5
			vertex 207 105.421875 131.52552795410156
			vertex 207 104.578125 131.52552795410156
		endloop
	endfacet
	facet normal 1 0 0
		outer loop
			vertex 207 112.5 127.5
			vertex 207 104.578125 131.52552795410156
			vertex 207 103.75888061523438 131.72744750976562
		endloop
	endfacet
	facet normal 1 0 0
		outer loop
			vertex 207 107.61978912353516 132.6790771484375
			vertex 207 106.98822784423828 132.1195526123047
			vertex 207 112.5 127.5
		endloop
	endfacet
	facet normal 1 0 0
		outer loop
			vertex 207 103.01177215576172 137.8804473876953
			vertex 207 91.98822784423828 137.8804473876953
			vertex 207 92.61978912353516 137.32093811035156
		endloop
	endfacet
	facet normal 1 0 0
		outer loop
			vertex 207 103.01177215576172 137.8804473876953
			vertex 207 92.61978912353516 137.32093811035156
			vertex 207 102.38021087646484 137.32093811035156
		endloop
	endfacet
	facet normal 1 0 0
		outer loop
			vertex 207 108.0990982055664 133.37347412109375
			vertex 207 107.61978912353516 132.6790771484375
			vertex 207 112.5 127.5
		endloop
	endfacet
	facet normal 1 0 0
		outer loop
			vertex 207 103.75888061523438 138.27255249023438
			vertex 207 91.98822784423828 137.8804473876953
			vertex 207 103.01177215576172 137.8804473876953
		endloop
	endfacet
	facet normal 1 0 0
		outer loop
			vertex 207 103.75888061523438 138.27255249023438
			vertex 207 91.24111938476562 138.27255249023438
			vertex 207 91.98822784423828 137.8804473876953
		endloop
	endfacet
	facet normal 1 0 0
		outer loop
			vertex 207 108.39830017089844 134.1623992919922
			vertex 207 108.0990982055664 133.37347412109375
			vertex 207 112.5 127.5
		endloop
	endfacet
	facet normal 1 0 0
		outer loop
			vertex 207 108.5 135
			vertex 207 108.39830017089844 134.1623992919922
			vertex 207 112.5 127.5
		endloop
	endfacet
	facet normal 1 0 0
		outer loop
			vertex 207 112.5 142.5
			vertex 207 82.5 142.5
			vertex 207 91.24111938476562 138.27255249023438
		endloop
	endfacet
	facet normal 1 0 0
		outer loop
			vertex 207 112.5 142.5
			vertex 207 103.75888061523438 138.27255249023438
			vertex 207 104.578125 138.4744873046875
		endloop
	endfacet
	facet normal 1 0 0
		outer loop
			vertex 207 112.5 142.5
			vertex 207 104.578125 138.4744873046875
			vertex 207 105.421875 138.4744873046875
		endloop
	endfacet
	facet normal 1 0 0
		outer loop
			vertex 207 112.5 142.5
			vertex 207 105.421875 138.4744873046875
			vertex 207 106.24111938476562 138.27255249023438
		endloop
	endfacet
	facet normal 1 0 0
		outer loop
			vertex 207 112.5 142.5
			vertex 207 106.24111938476562 138.27255249023438
			vertex 207 106.98822784423828 137.8804473876953
		endloop
	endfacet
	facet normal 1 0 0
		outer loop
			vertex 207 112.5 142.5
			vertex 207 106.98822784423828 137.8804473876953
			vertex 207 107.61978912353516 137.32093811035156
		endloop
	endfacet
	facet normal 1 0 0
		outer loop
			vertex 207 112.5 142.5
			vertex 207 107.61978912353516 137.32093811035156
			vertex 207 108.0990982055664 136.62652587890625
		endloop
	endfacet
	facet normal 1 0 0
		outer loop
			vertex 207 112.5 142.5
			vertex 207 108.0990982055664 136.62652587890625
			vertex 207 108.39830017089844 135.8376007080078
		endloop
	endfacet
	facet normal 1 0 0
		outer loop
			vertex 207 112.5 142.5
			vertex 207 108.39830017089844 135.8376007080078
			vertex 207 108.5 135
		endloop
	endfacet
	facet normal 1 0 0
		outer loop
			vertex 207 112.5 142.5
			vertex 207 91.24111938476562 138.27255249023438
			vertex 207 103.75888061523438 138.27255249023438
		endloop
	endfacet
	facet normal 1 0 0
		outer loop
			vertex 207 112.5 142.5
			vertex 207 108.5 135
			vertex 207 112.5 127.5
		endloop
	endfacet
	facet normal 1 0 0
		outer loop
			vertex 207 105 217.5
			vertex 207 90 217.5
			vertex 207 82.5 142.5
		endloop
	endfacet
	facet normal 1 0 0
		outer loop
			vertex 207 105 217.5
			vertex 207 82.5 142.5
			vertex 207 112.5 142.5
		endloop
	endfacet
	facet normal -1 0 0
		outer loop
			vertex 200 88.01177215576172 132.1195526123047
			vertex 200 82.5 127.5
			vertex 200 87.38021087646484 132.6790771484375
		endloop
	endfacet
	facet normal -1 0 0
		outer loop
			vertex 200 86.9009017944336 133.37347412109375
			vertex 200 87.38021087646484 132.6790771484375
			vertex 200 82.5 127.5
		endloop
	endfacet
	facet normal -1 0 0
		outer loop
			vertex 200 88.75888061523438 131.72744750976562
			vertex 200 82.5 127.5
			vertex 200 88.01177215576172 132.1195526123047
		endloop
	endfacet
	facet normal -1 0 0
		outer loop
			vertex 200 86.6017074584961 134.1623992919922
			vertex 200 86.9009017944336 133.37347412109375
			vertex 200 82.5 127.5
		endloop
	endfacet
	facet normal -1 0 0
		outer loop
			vertex 200 89.578125 131.52552795410156
			vertex 200 82.5 127.5
			vertex 200 88.75888061523438 131.72744750976562
		endloop
	endfacet
	facet normal -1 0 0
		outer loop
			vertex 200 86.5 135
			vertex 200 86.6017074584961 134.1623992919922
			vertex 200 82.5 127.5
		endloop
	endfacet
	facet normal -1 0 0
		outer loop
			vertex 200 90.42188262939453 131.52552795410156
			vertex 200 82.5 127.5
			vertex 200 89.578125 131.52552795410156
		endloop
	endfacet
	facet normal -1 0 0
		outer loop
			vertex 200 91.24111938476562 131.72744750976562
			vertex 200 82.5 127.5
			vertex 200 90.42188262939453 131.52552795410156
		endloop
	endfacet
	facet normal -1 0 0
		outer loop
			vertex 200 82.5 142.5
			vertex 200 87.38021087646484 137.32093811035156
			vertex 200 86.9009017944336 136.62652587890625
		endloop
	endfacet
	facet normal -1 0 0
		outer loop
			vertex 200 82.5 142.5
			vertex 200 86.9009017944336 136.62652587890625
			vertex 200 86.6017074584961 135.8376007080078
		endloop
	endfacet
	facet normal -1 0 0
		outer loop
			vertex 200 82.5 142.5
			vertex 200 86.6017074584961 135.8376007080078
			vertex 200 86.5 135
		endloop
	endfacet
	facet normal -1 0 0
		outer loop
			vertex 200 82.5 142.5
			vertex 200 86.5 135
			vertex 200 82.5 127.5
		endloop
	endfacet
	facet normal -1 0 0
		outer loop
			vertex 200 88.01177215576172 137.8804473876953
			vertex 200 87.38021087646484 137.32093811035156
			vertex 200 82.5 142.5
		endloop
	endfacet
	facet normal -1 0 0
		outer loop
			vertex 200 88.75888061523438 138.27255249023438
			vertex 200 88.01177215576172 137.8804473876953
			vertex 200 82.5 142.5
		endloop
	endfacet
	facet normal -1 0 0
		outer loop
			vertex 200 89.578125 138.4744873046875
			vertex 200 88.75888061523438 138.27255249023438
			vertex 200 82.5 142.5
		endloop
	endfacet
	facet normal -1 0 0
		outer loop
			vertex 200 90.42188262939453 138.4744873046875
			vertex 200 89.578125 138.4744873046875
			vertex 200 82.5 142.5
		endloop
	endfacet
	facet normal -1 0 0
		outer loop
			vertex 200 91.24111938476562 138.27255249023438
			vertex 200 90.42188262939453 138.4744873046875
			vertex 200 82.5 142.5
		endloop
	endfacet
	facet normal -1 0 0
		outer loop
			vertex 200 102.38021087646484 132.6790771484375
			vertex 200 91.98822784423828 132.1195526123047
			vertex 200 92.61978912353516 132.6790771484375
		endloop
	endfacet
	facet normal -1 0 0
		outer loop
			vertex 200 103.01177215576172 132.1195526123047
			vertex 200 91.98822784423828 132.1195526123047
			vertex 200 102.38021087646484 132.6790771484375
		endloop
	endfacet
	facet normal -1 0 0
		outer loop
			vertex 200 103.01177215576172 132.1195526123047
			vertex 200 91.24111938476562 131.72744750976562
			vertex 200 91.98822784423828 132.1195526123047
		endloop
	endfacet
	facet normal -1 0 0
		outer loop
			vertex 200 101.9009017944336 133.37347412109375
			vertex 200 92.61978912353516 132.6790771484375
			vertex 200 93.0990982055664 133.37347412109375
		endloop
	endfacet
	facet normal -1 0 0
		outer loop
			vertex 200 101.9009017944336 133.37347412109375
			vertex 200 102.38021087646484 132.6790771484375
			vertex 200 92.61978912353516 132.6790771484375
		endloop
	endfacet
	facet normal -1 0 0
		outer loop
			vertex 200 103.75888061523438 131.72744750976562
			vertex 200 91.24111938476562 131.72744750976562
			vertex 200 103.01177215576172 132.1195526123047
		endloop
	endfacet
	facet normal -1 0 0
		outer loop
			vertex 200 103.75888061523438 131.72744750976562
			vertex 200 82.5 127.5
			vertex 200 91.24111938476562 131.72744750976562
		endloop
	endfacet
	facet normal -1 0 0
		outer loop
			vertex 200 101.60169982910156 134.1623992919922
			vertex 200 93.0990982055664 133.37347412109375
			vertex 200 93.39830017089844 134.1623992919922
		endloop
	endfacet
	facet normal -1 0 0
		outer loop
			vertex 200 101.60169982910156 134.1623992919922
			vertex 200 101.9009017944336 133.37347412109375
			vertex 200 93.0990982055664 133.37347412109375
		endloop
	endfacet
	facet normal -1 0 0
		outer loop
			vertex 200 101.5 135
			vertex 200 101.60169982910156 134.1623992919922
			vertex 200 93.39830017089844 134.1623992919922
		endloop
	endfacet
	facet normal -1 0 0
		outer loop
			vertex 200 101.5 135
			vertex 200 93.39830017089844 134.1623992919922
			vertex 200 93.5 135
		endloop
	endfacet
	facet normal -1 0 0
		outer loop
			vertex 200 101.60169982910156 135.8376007080078
			vertex 200 101.5 135
			vertex 200 93.5 135
		endloop
	endfacet
	facet normal -1 0 0
		outer loop
			vertex 200 101.60169982910156 135.8376007080078
			vertex 200 93.5 135
			vertex 200 93.39830017089844 135.8376007080078
		endloop
	endfacet
	facet normal -1 0 0
		outer loop
			vertex 200 101.9009017944336 136.62652587890625
			vertex 200 93.39830017089844 135.8376007080078
			vertex 200 93.0990982055664 136.62652587890625
		endloop
	endfacet
	facet normal -1 0 0
		outer loop
			vertex 200 101.9009017944336 136.62652587890625
			vertex 200 101.60169982910156 135.8376007080078
			vertex 200 93.39830017089844 135.8376007080078
		endloop
	endfacet
	facet normal -1 0 0
		outer loop
			vertex 200 102.38021087646484 137.32093811035156
			vertex 200 101.9009017944336 136.62652587890625
			vertex 200 93.0990982055664 136.62652587890625
		endloop
	endfacet
	facet normal -1 0 0
		outer loop
			vertex 200 102.38021087646484 137.32093811035156
			vertex 200 93.0990982055664 136.62652587890625
			vertex 200 92.61978912353516 137.32093811035156
		endloop
	endfacet
	facet normal -1 0 0
		outer loop
			vertex 200 112.5 127.5
			vertex 200 103.75888061523438 131.72744750976562
			vertex 200 104.578125 131.52552795410156
		endloop
	endfacet
	facet normal -1 0 0
		outer loop
			vertex 200 112.5 127.5
			vertex 200 104.578125 131.52552795410156
			vertex 200 105.421875 131.52552795410156
		endloop
	endfacet
	facet normal -1 0 0
		outer loop
			vertex 200 112.5 127.5
			vertex 200 105.421875 131.52552795410156
			vertex 200 106.24111938476562 131.72744750976562
		endloop
	endfacet
	facet normal -1 0 0
		outer loop
			vertex 200 112.5 127.5
			vertex 200 106.24111938476562 131.72744750976562
			vertex 200 106.98822784423828 132.1195526123047
		endloop
	endfacet
	facet normal -1 0 0
		outer loop
			vertex 200 112.5 127.5
			vertex 200 82.5 127.5
			vertex 200 103.75888061523438 131.72744750976562
		endloop
	endfacet
	facet normal -1 0 0
		outer loop
			vertex 200 107.61978912353516 132.6790771484375
			vertex 200 112.5 127.5
			vertex 200 106.98822784423828 132.1195526123047
		endloop
	endfacet
	facet normal -1 0 0
		outer loop
			vertex 200 103.01177215576172 137.8804473876953
			vertex 200 92.61978912353516 137.32093811035156
			vertex 200 91.98822784423828 137.8804473876953
		endloop
	endfacet
	facet normal -1 0 0
		outer loop
			vertex 200 103.01177215576172 137.8804473876953
			vertex 200 102.38021087646484 137.32093811035156
			vertex 200 92.61978912353516 137.32093811035156
		endloop
	endfacet
	facet normal -1 0 0
		outer loop
			vertex 200 108.0990982055664 133.37347412109375
			vertex 200 112.5 127.5
			vertex 200 107.61978912353516 132.6790771484375
		endloop
	endfacet
	facet normal -1 0 0
		outer loop
			vertex 200 103.75888061523438 138.27255249023438
			vertex 200 103.01177215576172 137.8804473876953
			vertex 200 91.98822784423828 137.8804473876953
		endloop
	endfacet
	facet normal -1 0 0
		outer loop
			vertex 200 103.75888061523438 138.27255249023438
			vertex 200 91.98822784423828 137.8804473876953
			vertex 200 91.24111938476562 138.27255249023438
		endloop
	endfacet
	facet normal -1 0 0
		outer loop
			vertex 200 108.39830017089844 134.1623992919922
			vertex 200 112.5 127.5
			vertex 200 108.0990982055664 133.37347412109375
		endloop
	endfacet
	facet normal -1 0 0
		outer loop
			vertex 200 108.5 135
			vertex 200 112.5 127.5
			vertex 200 108.39830017089844 134.1623992919922
		endloop
	endfacet
	facet normal -1 0 0
		outer loop
			vertex 200 112.5 142.5
			vertex 200 91.24111938476562 138.27255249023438
			vertex 200 82.5 142.5
		endloop
	endfacet
	facet normal -1 0 0
		outer loop
			vertex 200 112.5 142.5
			vertex 200 108.5 135
			vertex 200 108.39830017089844 135.8376007080078
		endloop
	endfacet
	facet normal -1 0 0
		outer loop
			vertex 200 112.5 142.5
			vertex 200 108.39830017089844 135.8376007080078
			vertex 200 108.0990982055664 136.62652587890625
		endloop
	endfacet
	facet normal -1 0 0
		outer loop
			vertex 200 112.5 142.5
			vertex 200 108.0990982055664 136.62652587890625
			vertex 200 107.61978912353516 137.32093811035156
		endloop
	endfacet
	facet normal -1 0 0
		outer loop
			vertex 200 112.5 142.5
			vertex 200 107.61978912353516 137.32093811035156
			vertex 200 106.98822784423828 137.8804473876953
		endloop
	endfacet
	facet normal -1 0 0
		outer loop
			vertex 200 112.5 142.5
			vertex 200 106.98822784423828 137.8804473876953
			vertex 200 106.24111938476562 138.27255249023438
		endloop
	endfacet
	facet normal -1 0 0
		outer loop
			vertex 200 112.5 142.5
			vertex 200 106.24111938476562 138.27255249023438
			vertex 200 105.421875 138.4744873046875
		endloop
	endfacet
	facet normal -1 0 0
		outer loop
			vertex 200 112.5 142.5
			vertex 200 105.421875 138.4744873046875
			vertex 200 104.578125 138.4744873046875
		endloop
	endfacet
	facet normal -1 0 0
		outer loop
			vertex 200 112.5 142.5
			vertex 200 104.578125 138.4744873046875
			vertex 200 103.75888061523438 138.27255249023438
		endloop
	endfacet
	facet normal -1 0 0
		outer loop
			vertex 200 112.5 142.5
			vertex 200 103.75888061523438 138.27255249023438
			vertex 200 91.24111938476562 138.27255249023438
		endloop
	endfacet
	facet normal -1 0 0
		outer loop
			vertex 200 112.5 142.5
			vertex 200 112.5 127.5
			vertex 200 108.5 135
		endloop
	endfacet
	facet normal -1 0 0
		outer loop
			vertex 200 105 212.5
			vertex 200 112.5 142.5
			vertex 200 82.5 142.5
		endloop
	endfacet
	facet normal -1 0 0
		outer loop
			vertex 200 105 212.5
			vertex 200 82.5 142.5
			vertex 200 90 212.5
		endloop
	endfacet
	facet normal -1 0 0
		outer loop
			vertex 200 112.5 142.5
			vertex 200 105 212.5
			vertex 200 105 217.5
		endloop
	endfacet
	facet normal -1 0 0
		outer loop
			vertex 200 90 217.5
			vertex 200 90 212.5
			vertex 200 82.5 142.5
		endloop
	endfacet
endsolid exported
